<!DOCTYPE svg PUBLIC "-//W3C//DTD SVG 1.1//EN" "http://www.w3.org/Graphics/SVG/1.1/DTD/svg11.dtd">
<!-- Uploaded to: SVG Repo, www.svgrepo.com, Transformed by: SVG Repo Mixer Tools -->
<svg height="140px" width="140px" version="1.1" id="Capa_1" xmlns="http://www.w3.org/2000/svg" xmlns:xlink="http://www.w3.org/1999/xlink" viewBox="-14.13 -14.13 72.42 72.42" xml:space="preserve" fill="#000000" stroke="#000000" stroke-width="0.61824">
<g id="SVGRepo_bgCarrier" stroke-width="0"/>
<g id="SVGRepo_iconCarrier"> <g> <path style="fill:#fcfbfe;" d="M44.16,6.6H11.592L10.66,1.179H2.408C1.076,1.179,0,2.257,0,3.588v2.408h6.602l4.248,24.709 c0.094,0.544,0.617,0.985,1.17,0.985h28.527c1.332,0,2.41-1.077,2.41-2.411v-2.406H15.078l-0.587-3.414h22.042 c2.66,0,5.172-2.128,5.611-4.75L44.16,6.6z"/> <circle style="fill:#fcfbfe;" cx="19.47" cy="38.817" r="4.165"/> <path style="fill:#fcfbfe;" d="M29.762,38.816c0,2.299,1.863,4.164,4.162,4.164c2.301,0,4.168-1.865,4.168-4.164 c0-2.299-1.867-4.166-4.168-4.166C31.625,34.65,29.762,36.518,29.762,38.816z"/> </g> </g>
</svg>